<?xml version="1.0" encoding="UTF-8" standalone="no"?>
<!-- Created with Inkscape (http://www.inkscape.org/) -->

<svg
   width="841mm"
   height="594mm"
   viewBox="0 0 841 594"
   version="1.1"
   id="svg5"
   sodipodi:docname="desk-surface.svg"
   inkscape:version="1.2.2 (b0a8486541, 2022-12-01)"
   xmlns:inkscape="http://www.inkscape.org/namespaces/inkscape"
   xmlns:sodipodi="http://sodipodi.sourceforge.net/DTD/sodipodi-0.dtd"
   xmlns="http://www.w3.org/2000/svg"
   xmlns:svg="http://www.w3.org/2000/svg">
  <sodipodi:namedview
     id="namedview7"
     pagecolor="#ffffff"
     bordercolor="#666666"
     borderopacity="1.0"
     inkscape:showpageshadow="2"
     inkscape:pageopacity="0.0"
     inkscape:pagecheckerboard="0"
     inkscape:deskcolor="#d1d1d1"
     inkscape:document-units="mm"
     showgrid="true"
     inkscape:zoom="0.34386925"
     inkscape:cx="1176.3192"
     inkscape:cy="1068.7202"
     inkscape:window-width="1691"
     inkscape:window-height="1014"
     inkscape:window-x="20"
     inkscape:window-y="20"
     inkscape:window-maximized="0"
     inkscape:current-layer="layer1">
    <inkscape:grid
       units="mm"
       spacingx="10"
       spacingy="10"
       type="xygrid"
       id="grid29" />
  </sodipodi:namedview>
  <defs
     id="defs2">
    <inkscape:path-effect
       effect="mirror_symmetry"
       start_point="400,0"
       end_point="400,550"
       center_point="739.99999,355"
       id="path-effect398"
       is_visible="true"
       lpeversion="1.2"
       lpesatellites=""
       mode="free"
       discard_orig_path="false"
       fuse_paths="false"
       oposite_fuse="false"
       split_items="false"
       split_open="false"
       link_styles="false" />
    <inkscape:path-effect
       effect="fillet_chamfer"
       id="path-effect335"
       is_visible="true"
       lpeversion="1"
       nodesatellites_param="F,0,0,1,0,0,0,1 @ F,0,0,1,0,10,0,1 @ F,0,0,1,0,10,0,1 @ F,0,0,1,0,10,0,1 @ F,0,0,1,0,10,0,1 @ F,0,0,1,0,10,0,1 @ F,0,0,1,0,10,0,1 @ F,0,0,1,0,0,0,1"
       unit="mm"
       method="auto"
       mode="F"
       radius="10"
       chamfer_steps="1"
       flexible="false"
       use_knot_distance="true"
       apply_no_radius="true"
       apply_with_radius="true"
       only_selected="false"
       hide_knots="false" />
  </defs>
  <g
     inkscape:label="Layer 1"
     inkscape:groupmode="layer"
     id="layer1">
    <path
       style="fill:none;stroke:#000000;stroke-width:0.264583px;stroke-linecap:butt;stroke-linejoin:miter;stroke-opacity:1"
       d="m 399.99999,550 h 330 c 5.52285,0 10,-4.47715 10,-10 V 260 c 0,-5.52285 -4.47715,-10 -10,-10 h -110 c -5.52285,0 -10,4.47715 -10,10 v 89.99999 c 0,5.52285 -4.47715,10 -10,10 -5.52284,0 -9.99999,-4.47716 -9.99999,-10 V 170 c 0,-5.52285 -4.47715,-10 -10,-10 l -180,0 m 10e-6,390 h -330 c -5.522847,0 -10,-4.47715 -10,-10 V 260 c 0,-5.52285 4.477153,-10 10,-10 h 110 c 5.52285,0 10,4.47715 10,10 v 89.99999 c 0,5.52285 4.47715,10 10,10 5.52284,0 9.99999,-4.47716 9.99999,-10 V 170 c 0,-5.52285 4.47715,-10 10,-10 l 180,0"
       id="path165"
       sodipodi:nodetypes="cccccccc"
       inkscape:path-effect="#path-effect335;#path-effect398"
       inkscape:original-d="m 399.99999,550 h 340 V 250 h -130 V 359.99999 H 590 L 590,160 H 400"
       class="UnoptimicedTransforms" />
  </g>
</svg>
